<svg width="41" height="41" viewBox="0 0 41 41" fill="none" xmlns="http://www.w3.org/2000/svg">
<g clip-path="url(#clip0_272_518)">
<path d="M35.0284 0.216797H6.66861C3.42874 0.216797 0.792969 2.84528 0.792969 6.07617V34.3574C0.792969 37.5883 3.42874 40.2168 6.66861 40.2168H35.0284C38.2682 40.2168 40.904 37.5883 40.904 34.3574V6.07617C40.904 2.84528 38.2682 0.216797 35.0284 0.216797ZM38.5537 34.3574C38.5537 36.2959 36.9722 37.873 35.0284 37.873H6.66861C4.72475 37.873 3.14322 36.2959 3.14322 34.3574V6.07617C3.14322 4.1377 4.72475 2.56055 6.66861 2.56055H35.0284C36.9722 2.56055 38.5537 4.1377 38.5537 6.07617V34.3574Z" fill="#070707" stroke="#070707" stroke-width="0.5"/>
<path d="M19.6732 16.7012C19.6732 14.1163 17.5647 12.0137 14.9726 12.0137H7.92188V28.4199H14.9726C17.5647 28.4199 19.6732 26.3173 19.6732 23.7324C19.6732 22.3335 19.0547 21.0765 18.0766 20.2168C19.0547 19.3571 19.6732 18.1001 19.6732 16.7012ZM17.3229 23.7324C17.3229 25.0248 16.2686 26.0762 14.9726 26.0762H10.2721V21.3887H14.9726C16.2686 21.3887 17.3229 22.44 17.3229 23.7324ZM10.2721 19.0449V14.3574H14.9726C16.2686 14.3574 17.3229 15.4088 17.3229 16.7012C17.3229 17.9936 16.2686 19.0449 14.9726 19.0449H10.2721Z" fill="#070707" stroke="#070707" stroke-width="0.5"/>
<path d="M27.8991 16.7012C24.6592 16.7012 22.0234 19.3297 22.0234 22.5605C22.0234 25.7914 24.6592 28.4199 27.8991 28.4199C29.9901 28.4199 31.9401 27.2978 32.9879 25.4911L30.9535 24.3174C30.3243 25.4023 29.1538 26.0762 27.8991 26.0762C26.3668 26.0762 25.0601 25.0966 24.5751 23.7324H33.7747V22.5605C33.7747 19.3297 31.1389 16.7012 27.8991 16.7012ZM24.5751 21.3887C25.0601 20.0245 26.3668 19.0449 27.8991 19.0449C29.4313 19.0449 30.7381 20.0245 31.2231 21.3887H24.5751Z" fill="#070707" stroke="#070707" stroke-width="0.5"/>
<path d="M23.1992 12.0137H32.6002V14.3574H23.1992V12.0137Z" fill="#070707" stroke="#070707" stroke-width="0.5"/>
</g>
<defs>
<clipPath id="clip0_272_518">
<rect width="40.111" height="40" fill="white" transform="translate(0.792969 0.216797)"/>
</clipPath>
</defs>
</svg>
