<svg width="40" height="40" viewBox="0 0 40 40" fill="none" xmlns="http://www.w3.org/2000/svg">
<path d="M30.3721 7.11869L30.6778 6.73445L30.2992 6.42181C27.3838 4.01466 23.6811 2.57677 19.6303 2.57677C18.2111 2.57677 16.8352 2.77559 15.5324 3.1013L14.8053 3.28309L15.2524 3.88464C16.643 5.75551 18.6407 8.58108 21.0331 13.0064L21.2397 13.3886L21.6469 13.2373C26.1743 11.5563 28.8871 8.98483 30.3721 7.11869ZM13.0718 4.36091L12.8268 4.03813L12.4602 4.21102C7.9641 6.33185 4.55773 10.3827 3.21307 15.3296L3.047 15.9406L3.67984 15.9605C6.15573 16.0385 12.0739 15.9218 18.6316 14.165L19.25 13.9993L18.9394 13.4394C16.396 8.85573 14.257 5.92219 13.0718 4.36091ZM32.5256 8.6199L32.1379 8.15926L31.7563 8.62499C30.1003 10.6462 27.225 13.2715 22.6727 15.0529L22.1664 15.251L22.4061 15.7389C23.3876 17.7371 24.3397 19.8664 25.2074 22.1658L25.3503 22.5447L25.7506 22.4836C29.0439 21.9807 32.088 21.9807 34.3875 22.1608C34.9466 22.2072 35.3074 22.2593 35.7273 22.3199C35.8157 22.3327 35.9068 22.3459 36.0028 22.3594L36.5149 22.4316L36.5699 21.9175C36.6373 21.2869 36.6761 20.6536 36.6761 19.999C36.6761 15.6455 35.0987 11.677 32.5256 8.6199ZM20.3786 16.2472L20.1935 15.876L19.7945 15.9894C12.0812 18.1807 5.28653 18.1138 3.17048 18.0284L2.68864 18.0089L2.65177 18.4897L2.64919 18.5234C2.61263 18.9999 2.5751 19.4889 2.5751 20.0086C2.5751 25.2424 4.83946 29.9144 8.41041 33.1113L8.78321 33.4451L9.11668 33.072C10.0118 32.0707 11.2124 30.7954 12.672 29.4642L12.674 29.4624C15.4203 26.9307 18.9537 24.2519 22.8027 23.0831L23.3196 22.9261L23.1232 22.4229C22.2617 20.2152 21.3341 18.163 20.3786 16.2472ZM29.8681 24.1434L29.8681 24.1434L29.8627 24.1436C28.8516 24.1924 27.7753 24.2899 26.6808 24.4359L26.0859 24.5152L26.2713 25.0859C27.1951 27.9298 27.9592 30.9423 28.4528 34.0761L28.5771 34.865L29.2324 34.4087C32.4185 32.1901 34.8285 28.8931 35.9512 25.0227L36.1165 24.4531L35.5271 24.3866C34.0671 24.2217 32.2158 24.0555 29.8681 24.1434ZM24.2121 25.3287L24.0585 24.8753L23.5989 25.009C20.2174 25.9929 16.6804 28.5442 14 31.0046C12.7049 32.1832 11.6589 33.3019 10.8195 34.2183L10.4068 34.6688L10.9301 34.9842C13.4756 36.5186 16.4315 37.4213 19.6209 37.4213C22.0145 37.4213 24.2723 36.9156 26.3342 36.0246L26.6822 35.8741L26.6313 35.4984C26.147 31.9246 25.2928 28.5185 24.2121 25.3287ZM0.576172 19.999C0.576172 9.24581 9.14341 0.5 19.6303 0.5C30.1172 0.5 38.6844 9.24581 38.6844 19.999C38.6844 30.7522 30.1172 39.498 19.6303 39.498C9.14341 39.498 0.576172 30.7522 0.576172 19.999Z" fill="#070707" stroke="#070707"/>
</svg>
