<svg width="40" height="40" viewBox="0 0 40 40" fill="none" xmlns="http://www.w3.org/2000/svg">
<path d="M11.874 0.50961H12.374V0.5H28.2788C34.2434 0.5 39.1258 5.48469 39.1258 11.612V28.386C39.1258 34.5136 34.2431 39.498 28.2882 39.498H11.874C5.90811 39.498 1.01758 34.5216 1.01758 28.4052V11.6216C1.01758 5.49485 5.90891 0.50961 11.874 0.50961ZM3.02591 11.6303V11.6312V28.4149C3.02591 33.401 6.95346 37.4316 11.874 37.4316H28.2882C33.1914 37.4316 37.1175 33.3995 37.1175 28.3956V11.6216C37.1175 6.6174 33.191 2.58565 28.2788 2.58565H11.874C6.96125 2.58565 3.03583 6.61773 3.02591 11.6303ZM31.1103 7.6997C31.1103 7.10977 31.5643 6.66168 32.1144 6.66168C32.6645 6.66168 33.1186 7.10977 33.1186 7.6997C33.1186 8.28963 32.6645 8.73772 32.1144 8.73772C31.5643 8.73772 31.1103 8.28963 31.1103 7.6997ZM10.052 20.0038C10.052 14.3481 14.5767 9.73772 20.0811 9.73772C25.5856 9.73772 30.1103 14.3481 30.1103 20.0038C30.1103 25.6596 25.5856 30.2699 20.0811 30.2699C14.5767 30.2699 10.052 25.6596 10.052 20.0038ZM28.1019 20.0038C28.1019 15.4702 24.5417 11.8137 20.0811 11.8137C15.6205 11.8137 12.0603 15.4702 12.0603 20.0038C12.0603 24.5374 15.6205 28.1939 20.0811 28.1939C24.5417 28.1939 28.1019 24.5374 28.1019 20.0038Z" fill="#070707" stroke="#070707"/>
</svg>
